<svg width="1280" height="832" viewBox="0 0 1280 832" fill="none" xmlns="http://www.w3.org/2000/svg">
<mask id="mask0_105_3" style="mask-type:alpha" maskUnits="userSpaceOnUse" x="0" y="0" width="1280" height="832">
<rect width="1280" height="832" fill="#1D1D1D"/>
</mask>
<g mask="url(#mask0_105_3)">
<path d="M2188.93 1249.75H-913.918V1244.83H2188.93V1249.75Z" fill="#F9F9F9"/>
<path d="M2188.93 1131.05H-913.918V1126.14H2188.93V1131.05Z" fill="#F9F9F9"/>
<path d="M2188.93 1012.35H-913.918V1007.44H2188.93V1012.35Z" fill="#F9F9F9"/>
<path d="M2188.93 893.657H-913.918V888.756H2188.93V893.657Z" fill="#F9F9F9"/>
<path d="M2188.93 774.961H-913.918V770.049H2188.93V774.961Z" fill="#F9F9F9"/>
<path d="M2188.93 656.266H-913.918V651.365H2188.93V656.266Z" fill="#F9F9F9"/>
<path d="M2188.93 537.573H-913.918V532.662H2188.93V537.573Z" fill="#F9F9F9"/>
<path d="M2188.93 418.876H-913.918V413.967H2188.93V418.876Z" fill="#F9F9F9"/>
<path d="M2188.93 300.182H-913.918V295.273H2188.93V300.182Z" fill="#F9F9F9"/>
<path d="M2188.93 181.483H-913.918V176.574H2188.93V181.483Z" fill="#F9F9F9"/>
<path d="M2188.93 62.7863H-913.918V57.8794H2188.93V62.7863Z" fill="#F9F9F9"/>
<path d="M2188.93 -55.9083H-913.918V-60.8174H2188.93V-55.9083Z" fill="#F9F9F9"/>
<path d="M2188.93 -174.603H-913.918V-179.512H2188.93V-174.603Z" fill="#F9F9F9"/>
<path d="M2188.93 -293.3H-913.918V-298.209H2188.93V-293.3Z" fill="#F9F9F9"/>
<path d="M2188.93 -411.995H-913.918V-416.904H2188.93V-411.995Z" fill="#F9F9F9"/>
<path d="M2194 1249.08H2189.09V-416.998H2194V1249.08Z" fill="#F9F9F9"/>
<path d="M2079.05 1249.08H2074.15V-416.992H2079.05V1249.08Z" fill="#F9F9F9"/>
<path d="M1964.11 1249.08H1959.2V-417H1964.11V1249.08Z" fill="#F9F9F9"/>
<path d="M1849.16 1249.08H1844.25V-416.99H1849.16V1249.08Z" fill="#F9F9F9"/>
<path d="M1734.21 1249.08H1729.3V-416.998H1734.21V1249.08Z" fill="#F9F9F9"/>
<path d="M1619.27 1249.08H1614.35V-416.996H1619.27V1249.08Z" fill="#F9F9F9"/>
<path d="M1504.32 1249.08H1499.4V-416.993H1504.32V1249.08Z" fill="#F9F9F9"/>
<path d="M1389.37 1249.08H1384.46V-416.992H1389.37V1249.08Z" fill="#F9F9F9"/>
<path d="M1274.43 1249.08H1269.51V-417H1274.43V1249.08Z" fill="#F9F9F9"/>
<path d="M1159.46 1249.08H1154.57V-416.992H1159.46V1249.08Z" fill="#F9F9F9"/>
<path d="M1044.52 1249.08H1039.61V-416.99H1044.52V1249.08Z" fill="#F9F9F9"/>
<path d="M929.57 1249.08H924.669V-416.986H929.57V1249.08Z" fill="#F9F9F9"/>
<path d="M814.604 1249.39H810.197V-416.625H814.604V1249.39Z" fill="#F9F9F9"/>
<path d="M700.01 1249.39H694.721V-416.625H700.01V1249.39Z" fill="#F9F9F9"/>
<path d="M584.535 1249.39H580.127V-416.625H584.535V1249.39Z" fill="#F9F9F9"/>
<path d="M469.941 1249.39H464.652V-416.625H469.941V1249.39Z" fill="#F9F9F9"/>
<path d="M355.347 1249.39H350.058V-416.625H355.347V1249.39Z" fill="#F9F9F9"/>
<path d="M239.872 1249.39H235.464V-416.625H239.872V1249.39Z" fill="#F9F9F9"/>
<path d="M125.278 1249.39H119.989V-416.625H125.278V1249.39Z" fill="#F9F9F9"/>
<path d="M9.80267 1249.39H5.3952V-416.625H9.80267V1249.39Z" fill="#F9F9F9"/>
<path d="M-104.791 1249.39H-110.08V-416.625H-104.791V1249.39Z" fill="#F9F9F9"/>
<path d="M-219.385 1249.39H-224.674V-416.625H-219.385V1249.39Z" fill="#F9F9F9"/>
<path d="M-334.86 1249.39H-339.268V-416.625H-334.86V1249.39Z" fill="#F9F9F9"/>
<path d="M-449.454 1249.39H-454.743V-416.625H-449.454V1249.39Z" fill="#F9F9F9"/>
<path d="M-564.93 1249.39H-569.337V-416.625H-564.93V1249.39Z" fill="#F9F9F9"/>
<path d="M-679.523 1249.39H-684.812V-416.625H-679.523V1249.39Z" fill="#F9F9F9"/>
<path d="M-794.117 1249.39H-799.406V-416.625H-794.117V1249.39Z" fill="#F9F9F9"/>
<path d="M-909.593 1249.39H-914V-416.625H-909.593V1249.39Z" fill="#F9F9F9"/>
</g>
</svg>
