<svg width="25" height="20" viewBox="0 0 25 20" fill="none" xmlns="http://www.w3.org/2000/svg">
<path d="M23.8143 6.94242L11.9362 18.8603C11.2038 19.5952 10.23 20 9.19443 20C8.1589 20 7.1851 19.5952 6.45268 18.8603L1.18569 13.5761C0.421027 12.8089 0 11.7876 0 10.7006C0 9.61364 0.421027 8.59229 1.18569 7.82512C1.95128 7.05703 2.9693 6.6337 4.05181 6.6337C5.13432 6.6337 6.15234 7.05703 6.91793 7.82512L9.19443 10.1081L18.0821 1.19142C18.8477 0.423329 19.8657 0 20.9482 0C22.0307 0 23.0487 0.423329 23.8143 1.19142C24.579 1.95859 25 2.97994 25 4.06692C25 5.1539 24.579 6.17525 23.8143 6.94242Z" fill="#DD460B"/>
</svg>
