<svg width="25" height="25" viewBox="0 0 25 25" fill="none" xmlns="http://www.w3.org/2000/svg">
<path fill-rule="evenodd" clip-rule="evenodd" d="M18.1632 12.4967L23.8278 6.83701C25.3907 5.2771 25.3907 2.73734 23.8278 1.17743C22.2629 -0.392477 19.7271 -0.392477 18.1632 1.17743L12.4995 6.83701L6.83585 1.17743C5.27294 -0.392477 2.73709 -0.392477 1.17218 1.17743C-0.390727 2.73734 -0.390727 5.2771 1.17218 6.83701L6.83585 12.4967L1.17218 18.1664C-0.390727 19.7263 -0.390727 22.2662 1.17218 23.8261C2.73709 25.396 5.27294 25.396 6.83585 23.8261L12.4995 18.1664L18.1632 23.8261C19.7271 25.396 22.2629 25.396 23.8278 23.8261C25.3907 22.2662 25.3907 19.7263 23.8278 18.1664L18.1632 12.4967Z" fill="#FCECE7"/>
</svg>
