<svg width="19" height="18" viewBox="0 0 19 18" fill="none" xmlns="http://www.w3.org/2000/svg">
<path fill-rule="evenodd" clip-rule="evenodd" d="M10.9886 0.0436686C11.2747 -0.0179088 11.5717 -0.014319 11.8562 0.054158L11.8582 0.0546416L17.5552 1.43867L17.557 1.43909C17.9778 1.54042 18.3504 1.77857 18.6127 2.11403C18.8722 2.44579 19.0084 2.85296 18.9996 3.26926V14.7307C19.0084 15.147 18.8722 15.5542 18.6127 15.886C18.3503 16.2215 17.9776 16.4597 17.5566 16.561L17.5552 16.5613L11.8582 17.9454L11.8562 17.9458C11.5717 18.0143 11.2747 18.0179 10.9886 17.9563C10.7024 17.8948 10.4348 17.7697 10.2066 17.5909C9.9785 17.4121 9.79601 17.1844 9.67346 16.9257C9.55318 16.6718 9.49383 16.3947 9.4998 16.1154V15.462H7.59984C7.09594 15.462 6.61268 15.2675 6.25636 14.9212C5.90005 14.575 5.69988 14.1054 5.69988 13.6157V12.6926C5.69988 12.1827 6.1252 11.7694 6.64986 11.7694C7.17452 11.7694 7.59984 12.1827 7.59984 12.6926V13.6157L9.4998 13.6157V4.3843L7.59984 4.3843V5.30744C7.59984 5.81728 7.17452 6.23058 6.64986 6.23058C6.1252 6.23058 5.69988 5.81728 5.69988 5.30744V4.3843C5.69988 3.89463 5.90005 3.42503 6.25636 3.07878C6.61267 2.73254 7.09594 2.53802 7.59984 2.53802H9.4998V1.88458C9.49383 1.60526 9.55318 1.32819 9.67346 1.07427C9.79601 0.815557 9.9785 0.5879 10.2066 0.409111C10.4348 0.230321 10.7024 0.105246 10.9886 0.0436686ZM11.3998 16.1266C11.3998 16.1357 11.3996 16.1447 11.3993 16.1537L17.0972 14.7695L17.1 14.7688C17.0999 14.7628 17.0997 14.7567 17.0997 14.7506C17.0997 14.7477 17.0996 14.7448 17.0996 14.7419V3.25807C17.0996 3.24911 17.0998 3.24014 17.1 3.23119L17.0972 3.23051L11.3993 1.84628C11.3996 1.8553 11.3998 1.86433 11.3998 1.87336V16.1266ZM4.47166 5.57782C4.84265 5.93833 4.84265 6.52283 4.47166 6.88334L3.24343 8.07686H6.64986C7.17452 8.07686 7.59984 8.49016 7.59984 9C7.59984 9.50984 7.17452 9.92314 6.64986 9.92314H3.24343L4.47166 11.1167C4.84265 11.4772 4.84265 12.0617 4.47166 12.4222C4.10067 12.7827 3.49917 12.7827 3.12818 12.4222L0.278243 9.65276C-0.0927475 9.29225 -0.0927475 8.70775 0.278243 8.34724L3.12818 5.57782C3.49917 5.21731 4.10067 5.21731 4.47166 5.57782Z" fill="#DD460B"/>
</svg>
