<svg width="18" height="18" viewBox="0 0 18 18" fill="none" xmlns="http://www.w3.org/2000/svg">
<path fill-rule="evenodd" clip-rule="evenodd" d="M0.46728 5.24047C5.14984e-08 6.09415 0 7.12394 0 9.18351V10.5525C0 14.0632 1.02997e-07 15.8187 1.05441 16.9093C2.10883 18 3.80588 18 7.2 18H10.8C14.1941 18 15.8912 18 16.9456 16.9093C18 15.8187 18 14.0632 18 10.5525V9.18351C18 7.12394 18 6.09415 17.5327 5.24047C17.0654 4.38679 16.2118 3.85696 14.5044 2.79731L12.7044 1.68018C10.8995 0.560061 9.99711 0 9 0C8.00289 0 7.10045 0.560061 5.29563 1.68018L3.49563 2.79732C1.78825 3.85696 0.93456 4.38679 0.46728 5.24047ZM6.70195 12.0578C6.40247 11.8357 5.97972 11.8985 5.75772 12.1981C5.53574 12.4976 5.59856 12.9203 5.89805 13.1423C6.77322 13.791 7.8435 14.175 9 14.175C10.1565 14.175 11.2268 13.791 12.1019 13.1423C12.4015 12.9203 12.4643 12.4976 12.2423 12.1981C12.0203 11.8985 11.5976 11.8357 11.2981 12.0578C10.6425 12.5436 9.85131 12.825 9 12.825C8.14869 12.825 7.3575 12.5436 6.70195 12.0578Z" fill="#282828"/>
</svg>
