<svg width="14" height="14" viewBox="0 0 14 14" fill="none" xmlns="http://www.w3.org/2000/svg">
<path fill-rule="evenodd" clip-rule="evenodd" d="M12.25 7.875H7.875V12.25C7.875 12.7313 7.483 13.125 7 13.125C6.517 13.125 6.125 12.7313 6.125 12.25V7.875H1.75C1.267 7.875 0.875 7.48125 0.875 7C0.875 6.51875 1.267 6.125 1.75 6.125H6.125V1.75C6.125 1.26875 6.517 0.875 7 0.875C7.483 0.875 7.875 1.26875 7.875 1.75V6.125H12.25C12.733 6.125 13.125 6.51875 13.125 7C13.125 7.48125 12.733 7.875 12.25 7.875ZM12.25 5.25H8.75V1.75C8.75 0.783125 7.96644 0 7 0C6.03356 0 5.25 0.783125 5.25 1.75V5.25H1.75C0.783562 5.25 0 6.03312 0 7C0 7.96688 0.783562 8.75 1.75 8.75H5.25V12.25C5.25 13.2169 6.03356 14 7 14C7.96644 14 8.75 13.2169 8.75 12.25V8.75H12.25C13.2164 8.75 14 7.96688 14 7C14 6.03312 13.2164 5.25 12.25 5.25Z" fill="#282828"/>
<path d="M12.25 7.875H7.875V12.25C7.875 12.7313 7.483 13.125 7 13.125C6.517 13.125 6.125 12.7313 6.125 12.25V7.875H1.75C1.267 7.875 0.875 7.48125 0.875 7C0.875 6.51875 1.267 6.125 1.75 6.125H6.125V1.75C6.125 1.26875 6.517 0.875 7 0.875C7.483 0.875 7.875 1.26875 7.875 1.75V6.125H12.25C12.733 6.125 13.125 6.51875 13.125 7C13.125 7.48125 12.733 7.875 12.25 7.875Z" fill="#282828"/>
</svg>
