<svg width="23" height="23" viewBox="0 0 23 23" fill="none" xmlns="http://www.w3.org/2000/svg">
<path d="M11.5 0C5.15869 0 0 5.15869 0 11.5C0 17.8413 5.15869 23 11.5 23C17.8413 23 23 17.8413 23 11.5C23 5.15869 17.8413 0 11.5 0ZM17.25 12.4583H8.06343L10.2609 14.6558C10.6356 15.0305 10.6356 15.6361 10.2609 16.0108C10.074 16.1977 9.82868 16.2916 9.58332 16.2916C9.338 16.2916 9.09264 16.1977 8.90576 16.0108L5.07244 12.1775C4.98426 12.0893 4.91432 11.9839 4.86544 11.8661C4.76864 11.6322 4.76864 11.3678 4.86544 11.1339C4.91432 11.016 4.98426 10.9106 5.07244 10.8224L8.90576 6.98912C9.28045 6.61443 9.88614 6.61443 10.2608 6.98912C10.6355 7.36382 10.6355 7.9695 10.2608 8.34419L8.06339 10.5416H17.25C17.779 10.5416 18.2083 10.971 18.2083 11.5C18.2083 12.029 17.779 12.4583 17.25 12.4583Z" fill="#E05823"/>
</svg>
