<svg width="8" height="8" viewBox="0 0 8 8" fill="none" xmlns="http://www.w3.org/2000/svg">
<path fill-rule="evenodd" clip-rule="evenodd" d="M4 8C6.20916 8 8 6.20916 8 4C8 1.79086 6.20916 0 4 0C1.79086 0 0 1.79086 0 4C0 6.20916 1.79086 8 4 8ZM4.44444 1.55556C4.44444 1.3101 4.24547 1.11111 4 1.11111C3.75453 1.11111 3.55556 1.3101 3.55556 1.55556V3.88889C3.55556 4.19573 3.80427 4.44444 4.11111 4.44444H5.55556C5.80102 4.44444 6 4.24547 6 4C6 3.75453 5.80102 3.55556 5.55556 3.55556H4.44444V1.55556Z" fill="#E05823"/>
</svg>
