<svg width="10" height="10" viewBox="0 0 10 10" fill="none" xmlns="http://www.w3.org/2000/svg">
<path fill-rule="evenodd" clip-rule="evenodd" d="M6.77192 0.315069C6.97372 0.11333 7.24738 0 7.53272 0C7.81807 0 8.09173 0.11333 8.29353 0.315069L9.68493 1.70647C9.88667 1.90827 10 2.18193 10 2.46728C10 2.75262 9.88667 3.02628 9.68493 3.22808L8.83158 4.08143L5.91857 1.16842L6.77192 0.315069ZM5.15776 1.92922L0.315298 6.77169C0.113476 6.97345 6.09477e-05 7.24712 0 7.53249V8.9239C0 9.2093 0.113375 9.48301 0.315183 9.68482C0.516992 9.88662 0.790703 10 1.0761 10H2.46751C2.75288 9.99994 3.02655 9.88652 3.22831 9.6847L8.07078 4.84224L5.15776 1.92922Z" fill="#DD460B"/>
</svg>
