<svg width="20" height="15" viewBox="0 0 20 15" fill="none" xmlns="http://www.w3.org/2000/svg">
<path d="M11.7731 0C13.3 0 14.5416 1.16207 14.5416 2.59127C14.5416 4.02048 13.3 5.18255 11.7731 5.18255C10.2462 5.18255 9.00464 4.02048 9.00464 2.59127C9.00464 1.16207 10.2462 0 11.7731 0ZM12.1941 14.9933L20 15C19.4363 12.4889 17.7239 7.62689 16.7606 6.25111C16.0542 5.24265 14.9554 4.81523 13.7852 5.14248C13.1074 5.32947 12.6507 5.70347 12.2583 6.28451C11.98 6.70525 11.345 8.061 11.345 8.061H7.99144C7.80592 8.061 7.62754 8.09439 7.47057 8.16118L7.87727 7.37311C7.97717 7.17275 7.89154 6.93232 7.67749 6.83882C7.46343 6.74533 7.20656 6.82547 7.10667 7.02582L5.6939 9.75067L5.18016 9.22974C5.07314 9.12289 4.93043 9.06278 4.77346 9.06278C4.77346 9.06278 0.485194 9.06278 0.470924 9.06278C0.206921 9.06278 0 9.26314 0 9.50356C0 9.66385 0.0927578 9.7707 0.149839 9.83749C0.706386 10.4252 2.01927 11.7542 2.84695 12.5957C2.31894 12.7493 1.91937 13.1901 1.91937 13.7378C1.91937 14.4858 2.54014 15 3.27506 15H11.4021L14.0064 9.90427C14.092 9.73731 14.3061 9.66385 14.4845 9.74399C14.6629 9.82413 14.7413 10.0245 14.6557 10.1915L12.1941 14.9933ZM3.96004 12.5356L1.34142 9.8642H4.5594C4.60935 9.8642 4.65929 9.88424 4.68783 9.91763L5.28719 10.5321L4.80913 11.4537C4.70924 11.6541 4.79486 11.8945 5.00892 11.988C5.22298 12.0815 5.47984 12.0013 5.57974 11.801L5.90796 11.1732L7.25651 12.5423H3.96004V12.5356ZM9.06172 12.5356H8.41955L6.31466 10.3851L6.69283 9.65717C6.86407 10.1647 7.39208 10.5321 7.99144 10.5321H10.0606L9.06172 12.5356Z" fill="#DD460B"/>
</svg>
