<svg width="18" height="21" viewBox="0 0 18 21" fill="none" xmlns="http://www.w3.org/2000/svg">
<path d="M5.35179 18.8594C6.19288 19.9179 7.5142 20.6 9 20.6C10.4858 20.6 11.8071 19.9179 12.6482 18.8594C10.2264 19.1843 7.7736 19.1843 5.35179 18.8594Z" fill="#282828"/>
<path d="M15.7491 7.73005V8.42711C15.7491 9.26366 15.9903 10.0815 16.4422 10.7775L17.5496 12.4832C18.5612 14.0412 17.789 16.1588 16.0296 16.6515C11.4273 17.9403 6.57274 17.9403 1.97036 16.6515C0.21105 16.1588 -0.561179 14.0412 0.450361 12.4832L1.5578 10.7775C2.00972 10.0815 2.25087 9.26366 2.25087 8.42711V7.73005C2.25087 3.90272 5.27256 0.800049 9 0.800049C12.7274 0.800049 15.7491 3.90272 15.7491 7.73005Z" fill="#282828"/>
</svg>
