<svg width="13" height="14" viewBox="0 0 13 14" fill="none" xmlns="http://www.w3.org/2000/svg">
<path fill-rule="evenodd" clip-rule="evenodd" d="M2.1125 5.94045V4.55422C2.1125 2.03899 4.07685 0 6.5 0C8.92314 0 10.8875 2.03899 10.8875 4.55422V5.94045C11.6121 5.99665 12.084 6.13841 12.4288 6.49647C13 7.08933 13 8.04349 13 9.95181C13 11.8601 13 12.8143 12.4288 13.4071C11.8577 14 10.9385 14 9.1 14H3.9C2.06152 14 1.14228 14 0.571142 13.4071C0 12.8143 0 11.8601 0 9.95181C0 8.04349 0 7.08933 0.571142 6.49647C0.916052 6.13841 1.38791 5.99665 2.1125 5.94045ZM3.0875 4.55422C3.0875 2.59793 4.61533 1.01205 6.5 1.01205C8.38468 1.01205 9.9125 2.59793 9.9125 4.55422V5.90604C9.66355 5.90361 9.39348 5.90361 9.1 5.90361H3.9C3.60652 5.90361 3.33646 5.90361 3.0875 5.90604V4.55422Z" fill="#282828"/>
</svg>
