<svg width="19" height="19" viewBox="0 0 19 19" fill="none" xmlns="http://www.w3.org/2000/svg">
<path fill-rule="evenodd" clip-rule="evenodd" d="M1.39125 1.39125C-1.08719e-07 2.78248 0 5.02165 0 9.5C0 13.9783 -1.08719e-07 16.2175 1.39125 17.6087C2.78248 19 5.02165 19 9.5 19C13.9783 19 16.2175 19 17.6087 17.6087C19 16.2175 19 13.9783 19 9.5C19 5.02165 19 2.78248 17.6087 1.39125C16.2175 -1.08719e-07 13.9783 0 9.5 0C5.02165 0 2.78248 -1.08719e-07 1.39125 1.39125ZM14.7974 8.0561C15.0492 7.75381 15.0084 7.30456 14.7061 7.05264C14.4038 6.80073 13.9545 6.84157 13.7026 7.14387L11.9956 9.1923C11.6434 9.61505 11.427 9.87192 11.2489 10.0329C11.1662 10.1074 11.1172 10.1373 11.0936 10.1486C11.0889 10.1509 11.0855 10.1523 11.0834 10.1531C11.0834 10.1531 11.0793 10.1515 11.0761 10.15L11.073 10.1486C11.0495 10.1373 11.0005 10.1074 10.9179 10.0329C10.7397 9.87192 10.5233 9.61505 10.1711 9.1923L9.8933 8.85894C9.58122 8.48445 9.29993 8.14682 9.03716 7.90951C8.75131 7.65139 8.39116 7.42145 7.91664 7.42145C7.44215 7.42145 7.08204 7.65139 6.79615 7.90951C6.53339 8.14682 6.25207 8.48445 5.94004 8.85904L4.20264 10.9439C3.95073 11.2462 3.99157 11.6954 4.29387 11.9474C4.59617 12.1992 5.04544 12.1584 5.29736 11.8561L7.00441 9.80771C7.35666 9.38496 7.57297 9.12808 7.75114 8.96714C7.83379 8.89257 7.88282 8.86274 7.90638 8.85144C7.90885 8.8502 7.91274 8.84849 7.91274 8.84849L7.91664 8.84688C7.91882 8.84773 7.92224 8.84906 7.92699 8.85144C7.95046 8.86274 7.99948 8.89257 8.08212 8.96714C8.26034 9.12808 8.47666 9.38496 8.82892 9.80771L9.1067 10.1411C9.41878 10.5156 9.70007 10.8532 9.96284 11.0905C10.2487 11.3486 10.6088 11.5786 11.0834 11.5786C11.5579 11.5786 11.9179 11.3486 12.2039 11.0905C12.4667 10.8532 12.748 10.5156 13.0599 10.1411L14.7974 8.0561Z" fill="#DD460B"/>
</svg>
