<svg width="10" height="12" viewBox="0 0 10 12" fill="none" xmlns="http://www.w3.org/2000/svg">
<path fill-rule="evenodd" clip-rule="evenodd" d="M0.214367 0.879847H3.71229V0.343426C3.71229 0.154542 3.86656 0 4.05572 0H5.98694C6.17601 0 6.33036 0.15445 6.33036 0.343426V0.879938H9.78563C9.90373 0.879938 10 0.976481 10 1.09449V2.14614H0V1.0944C0 0.976389 0.0963602 0.879847 0.214367 0.879847ZM0.793716 2.70402H9.28082C9.45773 2.70402 9.6184 2.85007 9.60241 3.02589L8.88414 10.9018C8.86825 11.0777 8.73891 11.2234 8.56236 11.2234H1.50203C1.32539 11.2234 1.19587 11.078 1.18016 10.9018L0.471845 3.02589C0.456136 2.84943 0.616614 2.70402 0.793716 2.70402ZM6.30927 3.9273H7.21039V9.89286H6.30927V3.9273ZM2.74668 3.9273H3.6479V9.89286H2.74668V3.9273ZM4.52774 3.9273H5.42915V9.89286H4.52774V3.9273Z" fill="#CA0000"/>
</svg>
