<svg width="16" height="16" viewBox="0 0 16 16" fill="none" xmlns="http://www.w3.org/2000/svg">
<path d="M15.7637 5.72929L10.271 0.236295C9.95597 -0.0787706 9.44512 -0.0787706 9.13007 0.236295L7.81441 1.55204C7.50194 1.86452 7.49979 2.36937 7.80716 2.68499L5.62899 3.61925L3.17859 4.67025L0.0391239 14.0299C0.0163924 14.0976 0.00379788 14.167 0.00072605 14.2363C-0.0015471 14.2882 0.00152472 14.3401 0.00988009 14.3909C0.0265294 14.4927 0.0639443 14.5908 0.12065 14.6785C0.130111 14.6932 0.140064 14.7075 0.150631 14.7215C0.171643 14.7496 0.194804 14.7764 0.219993 14.8017C0.226382 14.8081 0.233263 14.8136 0.240513 14.8184C0.243032 14.8201 0.245796 14.8211 0.248377 14.8226C0.253292 14.8254 0.258145 14.8284 0.263244 14.8305C0.266378 14.8318 0.269757 14.8324 0.272951 14.8334C0.277743 14.835 0.282535 14.8368 0.28745 14.8377C0.291137 14.8385 0.294884 14.8465 0.29857 14.8468C0.303178 14.8473 0.307786 14.8562 0.312455 14.8562C0.312578 14.8562 0.312701 14.8562 0.312824 14.8562C0.317493 14.8562 0.322101 14.8474 0.326708 14.8469C0.33021 14.8465 0.333774 14.8426 0.337275 14.8419C0.342067 14.841 0.346737 14.8372 0.351406 14.8358C0.354723 14.8347 0.358102 14.8331 0.361359 14.8318C0.366581 14.8297 0.371434 14.8263 0.376411 14.8235C0.378929 14.8221 0.384643 14.8208 0.387101 14.8192C0.394289 14.8145 0.349133 14.8089 0.410569 14.8025V14.8024L5.05419 10.1553C5.06089 10.1486 5.06537 10.1416 5.07084 10.1341C5.09271 10.1043 5.10395 10.069 5.10543 10.0329C5.10616 10.0148 5.10383 9.99655 5.0991 9.97867C5.09676 9.96977 5.09351 9.96092 5.08976 9.95226C4.97844 9.69501 4.92677 9.41779 4.93537 9.14235C4.93549 9.13922 4.93586 9.13615 4.93592 9.13307C4.93887 9.05087 4.94747 8.96891 4.96117 8.88762C4.97217 8.82237 4.98704 8.75774 5.00492 8.69372C5.08841 8.3953 5.24612 8.1136 5.4805 7.87914C5.48455 7.87509 5.48885 7.87134 5.49297 7.86728C5.51177 7.84885 5.53063 7.83054 5.54998 7.81303C5.55809 7.80572 5.56651 7.79896 5.57468 7.79184C5.59035 7.77813 5.60595 7.76431 5.62199 7.75129C5.63132 7.74367 5.64097 7.73666 5.65043 7.72923C5.66567 7.71725 5.68084 7.70508 5.69639 7.69372C5.70603 7.68665 5.71592 7.68014 5.72569 7.67332C5.74136 7.66226 5.75696 7.65101 5.77287 7.64051C5.78307 7.63375 5.79358 7.62761 5.8039 7.62109C5.81969 7.61114 5.83542 7.60088 5.85145 7.59148C5.8614 7.58558 5.8716 7.5803 5.88162 7.57464C5.89833 7.56518 5.91492 7.5556 5.93187 7.54669C5.94182 7.54147 5.95202 7.5368 5.9621 7.5317C5.9793 7.52304 5.99644 7.51425 6.01383 7.5062C6.02458 7.50122 6.03545 7.4968 6.04627 7.49207C6.06322 7.48457 6.08012 7.47695 6.09726 7.47001C6.10844 7.46547 6.11981 7.46153 6.13111 7.45723C6.14813 7.45072 6.16502 7.44402 6.18216 7.438C6.19378 7.43395 6.20557 7.43045 6.21731 7.42664C6.2342 7.42111 6.25103 7.41539 6.26805 7.41035C6.28046 7.40667 6.293 7.4036 6.30547 7.40022C6.32199 7.39573 6.3384 7.39094 6.35499 7.38688C6.36783 7.38375 6.38079 7.38123 6.39369 7.37834C6.41003 7.37472 6.42637 7.37085 6.44278 7.36765C6.45605 7.36507 6.46944 7.36311 6.48277 7.36083C6.49893 7.35807 6.51509 7.35506 6.53131 7.35266C6.54495 7.3507 6.55865 7.34928 6.57229 7.34762C6.58826 7.34566 6.60423 7.34345 6.62027 7.34191C6.63421 7.34056 6.64816 7.33982 6.66211 7.33878C6.67796 7.33761 6.69375 7.3362 6.70954 7.3354C6.72367 7.33472 6.73786 7.3346 6.75205 7.33423C6.76772 7.3338 6.78344 7.33312 6.79911 7.33312C6.81416 7.33312 6.82921 7.33368 6.84427 7.33398C6.85895 7.33429 6.87357 7.33435 6.88819 7.33503C6.90337 7.3357 6.91854 7.33699 6.93366 7.3381C6.94815 7.33908 6.96265 7.33982 6.97709 7.34117C6.99245 7.34259 7.00769 7.34461 7.02298 7.34646C7.03724 7.34812 7.05155 7.34953 7.06574 7.35149C7.08123 7.35365 7.09665 7.35647 7.11213 7.35905C7.12607 7.36132 7.14002 7.36335 7.15391 7.36599C7.16988 7.36901 7.18573 7.37269 7.20158 7.37607C7.21485 7.3789 7.22812 7.38148 7.24133 7.38461C7.25767 7.38848 7.27383 7.39303 7.29005 7.39739C7.30271 7.40077 7.31542 7.40378 7.32808 7.40747C7.34454 7.41226 7.36089 7.41767 7.37729 7.42289C7.38952 7.42676 7.40174 7.43032 7.41391 7.43444C7.43068 7.44015 7.4472 7.4466 7.46385 7.45281C7.4754 7.45711 7.48708 7.4611 7.49857 7.46565C7.51546 7.47235 7.53217 7.47978 7.54894 7.48697C7.55994 7.4917 7.57106 7.49606 7.582 7.50104C7.59846 7.50847 7.61468 7.51665 7.63096 7.52457C7.64196 7.52998 7.65314 7.53495 7.66407 7.54061C7.68029 7.5489 7.69621 7.55793 7.71224 7.56672C7.72299 7.57262 7.73381 7.57815 7.7445 7.58429C7.76084 7.59369 7.77681 7.60383 7.79291 7.61372C7.80292 7.61993 7.81312 7.62576 7.82307 7.63215C7.83898 7.64241 7.85453 7.65335 7.87019 7.6641C7.88002 7.67086 7.89004 7.67725 7.89975 7.68419C7.91455 7.69476 7.92893 7.70607 7.94349 7.71712C7.95375 7.72493 7.96425 7.73236 7.97439 7.74047C7.98809 7.75135 8.00142 7.76296 8.01494 7.77433C8.02551 7.78323 8.03632 7.79171 8.0467 7.80087C8.06397 7.81604 8.0808 7.83196 8.09763 7.84787C8.1039 7.85377 8.11035 7.8593 8.11656 7.86532C8.22782 7.97997 8.32169 8.10549 8.39812 8.23838C8.41342 8.26499 8.42798 8.29184 8.44186 8.31899C8.53912 8.50897 8.60209 8.71215 8.63072 8.91914C8.643 9.00786 8.64896 9.09725 8.64866 9.18659C8.64841 9.24619 8.6454 9.30572 8.63957 9.36507C8.63662 9.39475 8.63299 9.42436 8.62869 9.45385C8.62083 9.50755 8.61032 9.56094 8.59779 9.6139C8.58016 9.68843 8.55773 9.76198 8.53088 9.83423C8.51387 9.88 8.4955 9.92541 8.47479 9.97007C8.45741 10.0074 8.4383 10.0441 8.41833 10.0805C8.33539 10.2316 8.23052 10.3737 8.10255 10.5017L8.10249 10.5017C8.07072 10.5335 8.03786 10.5633 8.00456 10.5922C7.99694 10.5989 7.98932 10.6054 7.98158 10.6119C7.94847 10.6398 7.91474 10.6665 7.88021 10.6916C7.87548 10.6951 7.87056 10.6983 7.86577 10.7016C7.83419 10.7242 7.802 10.7454 7.76944 10.7658C7.76176 10.7706 7.7542 10.7754 7.74646 10.7801C7.71052 10.8017 7.67409 10.8221 7.6371 10.8411C7.62967 10.8449 7.62218 10.8484 7.61468 10.8522C7.58126 10.8688 7.54741 10.8844 7.51325 10.8989C7.5068 10.9016 7.50047 10.9046 7.49402 10.9072C7.45574 10.923 7.41704 10.9371 7.37796 10.9502C7.36906 10.9532 7.36009 10.9559 7.35112 10.9588C7.31352 10.9707 7.27567 10.9817 7.23758 10.9913C7.23476 10.992 7.23193 10.9929 7.2291 10.9935C7.18874 11.0034 7.14807 11.0115 7.10728 11.0187C7.09788 11.0203 7.08841 11.0219 7.07901 11.0234C7.03822 11.0299 6.9973 11.0354 6.9562 11.0393C6.95252 11.0396 6.94889 11.0397 6.94521 11.0401C6.90668 11.0434 6.8681 11.0453 6.82946 11.0463C6.82043 11.0466 6.8114 11.0469 6.80237 11.0469C6.76022 11.0474 6.71801 11.0468 6.67593 11.0444C6.67108 11.0442 6.66622 11.0436 6.66143 11.0432C6.62426 11.0409 6.58715 11.0373 6.55011 11.0327C6.53819 11.0313 6.52627 11.0296 6.51435 11.028C6.48056 11.0232 6.44683 11.0174 6.41329 11.0108C6.40493 11.0092 6.39652 11.0078 6.38816 11.0061C6.34731 10.9974 6.30663 10.9873 6.26633 10.9759C6.25663 10.9731 6.24704 10.97 6.2374 10.9671C6.20557 10.9576 6.17399 10.9472 6.1426 10.936C6.13136 10.9319 6.12005 10.9279 6.10887 10.9237C6.06918 10.9086 6.0298 10.8927 5.99097 10.8748C5.97991 10.8697 5.96849 10.8662 5.95694 10.8634C5.95374 10.8626 5.95061 10.8621 5.94735 10.8614C5.93789 10.8597 5.92837 10.8587 5.91885 10.8584C5.91713 10.8583 5.91547 10.8578 5.91375 10.8578C5.91307 10.8578 5.9124 10.858 5.91178 10.858C5.90103 10.8581 5.89034 10.8591 5.87977 10.8611C5.8775 10.8616 5.87535 10.8623 5.87308 10.8629C5.86478 10.8648 5.85661 10.8672 5.84863 10.8702C5.84531 10.8714 5.84217 10.8729 5.83892 10.8743C5.83185 10.8775 5.82497 10.8811 5.81828 10.8852C5.81545 10.8869 5.81256 10.8885 5.8098 10.8904C5.8007 10.8967 5.79198 10.9035 5.78399 10.9116L1.14885 15.5468C1.12981 15.5659 1.11795 15.5893 1.11316 15.6138C1.11156 15.622 1.11076 15.6304 1.11076 15.6387C1.11076 15.6636 1.11789 15.6886 1.13214 15.7101C1.13687 15.7173 1.14246 15.7242 1.14879 15.7305L1.19757 15.7793C1.21361 15.7953 1.23044 15.8102 1.24764 15.8246C1.25237 15.8285 1.25716 15.8323 1.26196 15.8361C1.27633 15.8476 1.29108 15.8584 1.30619 15.8688C1.30975 15.8712 1.31313 15.8737 1.31676 15.8761C1.33513 15.8882 1.35393 15.8993 1.37316 15.9097C1.37776 15.9121 1.38243 15.9144 1.3871 15.9167C1.40277 15.9247 1.41862 15.9322 1.43478 15.9391C1.43994 15.9413 1.4451 15.9436 1.45032 15.9457C1.47047 15.9538 1.49093 15.9612 1.5117 15.9674C1.51452 15.9683 1.51741 15.9689 1.5203 15.9698C1.53861 15.9751 1.55716 15.9797 1.57584 15.9835C1.58167 15.9848 1.58757 15.9859 1.59347 15.987C1.61258 15.9906 1.6318 15.9935 1.6511 15.9955C1.65368 15.9958 1.6562 15.9962 1.65871 15.9965C1.68034 15.9986 1.70209 15.9995 1.7239 15.9997C1.72617 15.9997 1.72838 16 1.73066 16C1.7352 16 1.73981 15.9995 1.74442 15.9994C1.75628 15.9992 1.76807 15.9988 1.77993 15.998C1.78742 15.9975 1.79486 15.9969 1.80235 15.9962C1.81421 15.9951 1.82601 15.9936 1.8378 15.9919C1.84505 15.9909 1.8523 15.9899 1.85955 15.9886C1.87221 15.9864 1.8848 15.9837 1.8974 15.9808C1.90366 15.9794 1.90987 15.9782 1.91613 15.9766C1.93463 15.972 1.95306 15.9666 1.9713 15.9605C1.97149 15.9604 1.97173 15.9604 1.97192 15.9603L8.95234 13.6009L11.3116 12.8034L13.2965 8.17516L13.3073 8.18597C13.6224 8.50104 14.1332 8.50104 14.4483 8.18597L15.7639 6.87023C16.0787 6.55523 16.0787 6.04436 15.7637 5.72929Z" fill="white"/>
</svg>
